<svg width="26" height="36" viewBox="0 0 26 36" fill="none" xmlns="http://www.w3.org/2000/svg">
<path d="M21.9486 11.3956C21.8694 11.1157 21.4827 11.1341 21.4422 11.4223C21.2001 13.1116 22.5921 17.1081 22.095 18.9567C22.0915 18.969 22.0882 18.9813 22.0848 18.9936C21.9771 19.3894 21.4091 19.3121 21.4045 18.9006C21.3879 17.3033 20.9791 15.5559 20.1027 14.4861C16.8004 10.4565 20.3273 7.48286 20.1966 6.51896C20.1937 6.48932 20.184 6.46075 20.1683 6.43545C20.1526 6.41016 20.1313 6.38881 20.106 6.37306C20.0808 6.35731 20.0522 6.34758 20.0226 6.34462C19.9929 6.34167 19.963 6.34556 19.9351 6.356C19.9305 6.35784 19.9269 6.35876 19.9259 6.36061C19.7142 6.48029 19.5172 6.62483 19.3202 6.76569C17.9991 7.71026 16.7884 8.84632 16.0887 10.3773C15.6873 11.2575 15.5815 12.2398 15.3522 13.1742C15.2638 13.5296 15.1635 13.8813 15.0457 14.2274C14.914 14.6159 14.7299 15.0063 14.438 15.2944C14.3073 15.4233 14.148 15.5182 13.9713 15.5531C13.5073 15.6452 13.2615 15.3138 13.1731 14.9244C12.9273 13.8398 13.1086 12.7443 13.2007 11.6524C13.5708 7.2573 8.91238 6.84854 10.6137 0.439082C11.0648 -1.25857 4.97022 4.32324 7.02324 9.17959C7.42556 10.1297 7.38781 11.0356 6.93302 11.9507C6.44784 12.9266 5.85035 13.8085 5.55575 14.8765C5.4508 15.2604 5.39095 15.6489 5.344 16.0429C5.28416 16.5502 5.42686 17.3134 4.77597 17.445C4.5053 17.5003 4.13153 17.4699 3.90689 17.2885C3.73197 17.1458 3.6353 16.924 3.57822 16.7021C3.30848 15.6655 3.34162 14.6169 3.46959 13.5591C3.58283 12.6274 3.66108 10.8726 2.72019 12.6237C-0.314221 18.2672 -0.205584 25.2944 3.49813 30.588C4.92235 32.6236 6.72956 33.9207 9.09283 34.5136C13.9004 35.7197 19.6479 35.3542 22.674 31.1054C23.8304 29.4824 24.5245 27.5002 24.9784 25.5586C25.5584 23.0784 25.6689 20.7225 24.7611 18.316C23.881 15.9803 22.6363 13.8095 21.9486 11.3956Z" fill="black"/>
</svg>
