<svg width="37" height="72" viewBox="0 0 37 72" fill="none" xmlns="http://www.w3.org/2000/svg">
<path d="M34.2457 46.3773C34.1647 46.1949 33.9594 46.2378 33.9161 46.433C33.4954 48.334 34.0248 56.3505 30.5245 55.3298C28.0922 54.6201 28.0922 48.0895 32.8998 44.4115C39.2392 39.5622 34.9878 27.7755 33.4199 23.6787C33.2846 23.3275 32.816 23.4562 32.8399 23.8366C33.1612 28.7944 33.9253 32.2289 32.1025 34.9008C30.0679 37.881 27.3566 32.1733 29.9556 30.1454C32.5545 28.1157 32.3308 24.0245 30.4638 21.3316C28.895 19.0684 28.512 15.1432 28.4319 12.7413C28.4117 12.1292 27.6438 12.0161 27.4837 12.6017C26.7223 15.3831 27.1191 18.3496 26.4553 21.1565C26.1948 22.2603 25.7391 23.3449 24.9933 24.2169C24.4934 24.8008 23.8352 25.3937 23.083 25.6254C22.0639 25.941 21.425 25.235 21.2777 24.2753C21.1294 23.3093 21.3329 22.2867 21.6257 21.3663C21.9663 20.299 22.2977 19.2408 22.4984 18.1361C22.8906 15.976 22.8934 13.5149 21.4443 11.7123C20.9214 11.0638 20.2456 10.5511 19.5018 10.1707C13.6981 7.20601 15.9545 6.75173 15.7787 1.01027C15.7548 0.204782 14.6445 -0.011412 14.3057 0.721095C10.6443 8.6692 11.3864 11.3028 13.0941 15.0556C15.4012 20.1275 17.7093 26.9755 13.5489 26.6726C9.87836 26.4044 11.4223 16.9074 10.3212 13.3634C10.1398 12.7769 9.2689 12.89 9.24496 13.503C9.15474 15.904 8.7202 19.8301 6.93969 22.0924C4.82223 24.7862 4.56814 28.8774 7.51693 30.9062C10.4648 32.935 7.38804 38.6418 5.08093 35.6616C3.01226 32.9897 3.8795 29.5543 4.24315 24.5964C4.27169 24.2151 3.73956 24.0865 3.58674 24.4377C1.80807 28.5345 -2.03466 39.3861 4.18331 45.1723C5.72537 46.6063 7.54087 47.7785 8.73493 49.5463C9.5322 50.7267 9.96306 52.2821 9.52207 53.6723C9.08845 55.0406 7.34937 56.678 5.91963 55.4994C4.7182 54.5097 4.50645 52.4034 4.28826 50.9867C4.09309 49.7151 3.99366 48.4325 3.80309 47.16C3.76626 46.9164 3.59687 45.6138 3.25899 46.3773C2.41937 48.2747 -0.158404 55.7193 3.52229 61.6213C4.04153 62.4542 4.60956 63.2587 5.15182 64.0761C6.71414 66.4341 8.75242 68.504 11.3219 69.7728C15.0376 71.6064 19.4732 71.8718 23.4301 70.6851C28.327 69.2164 32.7423 64.6188 34.7999 60.0632C36.6955 55.8689 36.0704 50.5042 34.2466 46.3773H34.2457Z" fill="black"/>
</svg>
